<svg version="1.1" viewBox="0.0 0.0 341.6771653543307 174.58792650918636" fill="none" stroke="none" stroke-linecap="square" stroke-miterlimit="10" xmlns:xlink="http://www.w3.org/1999/xlink" xmlns="http://www.w3.org/2000/svg"><clipPath id="p.0"><path d="m0 0l341.67715 0l0 174.58792l-341.67715 0l0 -174.58792z" clip-rule="nonzero"/></clipPath><g clip-path="url(#p.0)"><path fill="#ffffff" d="m0 0l341.67715 0l0 174.58792l-341.67715 0z" fill-rule="evenodd"/><path fill="#f3f3f3" d="m262.2021 6.782152l73.51181 0l0 162.99213l-73.51181 0z" fill-rule="evenodd"/><path stroke="#000000" stroke-width="1.0" stroke-linejoin="round" stroke-linecap="butt" d="m262.2021 6.782152l73.51181 0l0 162.99213l-73.51181 0z" fill-rule="evenodd"/><path fill="#b6d7a8" d="m12.532808 63.624786l0 0c0 -3.122429 2.531228 -5.653656 5.653656 -5.653656l41.480087 0c1.499443 0 2.9374733 0.5956497 3.997738 1.6559143c1.0602646 1.0602684 1.6559219 2.4982986 1.6559219 3.9977417l0 22.613945c0 3.122429 -2.531231 5.653656 -5.65366 5.653656l-41.480087 0c-3.122428 0 -5.653656 -2.531227 -5.653656 -5.653656z" fill-rule="evenodd"/><path stroke="#000000" stroke-width="1.0" stroke-linejoin="round" stroke-linecap="butt" d="m12.532808 63.624786l0 0c0 -3.122429 2.531228 -5.653656 5.653656 -5.653656l41.480087 0c1.499443 0 2.9374733 0.5956497 3.997738 1.6559143c1.0602646 1.0602684 1.6559219 2.4982986 1.6559219 3.9977417l0 22.613945c0 3.122429 -2.531231 5.653656 -5.65366 5.653656l-41.480087 0c-3.122428 0 -5.653656 -2.531227 -5.653656 -5.653656z" fill-rule="evenodd"/><path fill="#000000" d="m32.673473 81.85175l5.125 -13.359375l1.90625 0l5.46875 13.359375l-2.015625 0l-1.546875 -4.046875l-5.59375 0l-1.46875 4.046875l-1.875 0zm3.859375 -5.484375l4.53125 0l-1.40625 -3.703125q-0.625 -1.6875 -0.9375 -2.765625q-0.265625 1.28125 -0.71875 2.546875l-1.46875 3.921875z" fill-rule="nonzero"/><path fill="#b6d7a8" d="m88.71391 63.624786l0 0c0 -3.122429 2.531227 -5.653656 5.653656 -5.653656l41.480087 0c1.4994354 0 2.9374695 0.5956497 3.9977417 1.6559143c1.060257 1.0602684 1.6559143 2.4982986 1.6559143 3.9977417l0 22.613945c0 3.122429 -2.5312347 5.653656 -5.653656 5.653656l-41.480087 0c-3.122429 0 -5.653656 -2.531227 -5.653656 -5.653656z" fill-rule="evenodd"/><path stroke="#000000" stroke-width="1.0" stroke-linejoin="round" stroke-linecap="butt" d="m88.71391 63.624786l0 0c0 -3.122429 2.531227 -5.653656 5.653656 -5.653656l41.480087 0c1.4994354 0 2.9374695 0.5956497 3.9977417 1.6559143c1.060257 1.0602684 1.6559143 2.4982986 1.6559143 3.9977417l0 22.613945c0 3.122429 -2.5312347 5.653656 -5.653656 5.653656l-41.480087 0c-3.122429 0 -5.653656 -2.531227 -5.653656 -5.653656z" fill-rule="evenodd"/><path fill="#000000" d="m110.2452 81.85175l0 -13.359375l5.015625 0q1.53125 0 2.453125 0.40625q0.921875 0.40625 1.4375 1.25q0.53125 0.84375 0.53125 1.765625q0 0.859375 -0.46875 1.625q-0.453125 0.75 -1.390625 1.203125q1.203125 0.359375 1.859375 1.21875q0.65625 0.859375 0.65625 2.015625q0 0.9375 -0.40625 1.75q-0.390625 0.796875 -0.984375 1.234375q-0.578125 0.4375 -1.453125 0.671875q-0.875 0.21875 -2.15625 0.21875l-5.09375 0zm1.78125 -7.75l2.875 0q1.1875 0 1.6875 -0.140625q0.671875 -0.203125 1.015625 -0.671875q0.34375 -0.46875 0.34375 -1.171875q0 -0.65625 -0.328125 -1.15625q-0.3125 -0.515625 -0.90625 -0.703125q-0.59375 -0.1875 -2.03125 -0.1875l-2.65625 0l0 4.03125zm0 6.171875l3.3125 0q0.859375 0 1.203125 -0.0625q0.609375 -0.109375 1.015625 -0.359375q0.421875 -0.265625 0.6875 -0.75q0.265625 -0.484375 0.265625 -1.125q0 -0.75 -0.390625 -1.296875q-0.375 -0.546875 -1.0625 -0.765625q-0.671875 -0.234375 -1.953125 -0.234375l-3.078125 0l0 4.59375z" fill-rule="nonzero"/><path fill="#b6d7a8" d="m164.89502 63.624786l0 0c0 -3.122429 2.5312195 -5.653656 5.653656 -5.653656l41.480087 0c1.4994354 0 2.9374695 0.5956497 3.9977417 1.6559143c1.060257 1.0602684 1.6559143 2.4982986 1.6559143 3.9977417l0 22.613945c0 3.122429 -2.5312347 5.653656 -5.653656 5.653656l-41.480087 0c-3.1224365 0 -5.653656 -2.531227 -5.653656 -5.653656z" fill-rule="evenodd"/><path stroke="#000000" stroke-width="1.0" stroke-linejoin="round" stroke-linecap="butt" d="m164.89502 63.624786l0 0c0 -3.122429 2.5312195 -5.653656 5.653656 -5.653656l41.480087 0c1.4994354 0 2.9374695 0.5956497 3.9977417 1.6559143c1.060257 1.0602684 1.6559143 2.4982986 1.6559143 3.9977417l0 22.613945c0 3.122429 -2.5312347 5.653656 -5.653656 5.653656l-41.480087 0c-3.1224365 0 -5.653656 -2.531227 -5.653656 -5.653656z" fill-rule="evenodd"/><path fill="#000000" d="m195.521 77.16425l1.765625 0.453125q-0.5625 2.171875 -2.0 3.328125q-1.4375 1.140625 -3.53125 1.140625q-2.15625 0 -3.515625 -0.875q-1.34375 -0.890625 -2.0625 -2.546875q-0.703125 -1.671875 -0.703125 -3.59375q0 -2.078125 0.796875 -3.625q0.796875 -1.5625 2.265625 -2.359375q1.484375 -0.8125 3.25 -0.8125q2.0 0 3.359375 1.015625q1.375 1.015625 1.90625 2.875l-1.734375 0.40625q-0.46875 -1.453125 -1.359375 -2.109375q-0.875 -0.671875 -2.203125 -0.671875q-1.546875 0 -2.578125 0.734375q-1.03125 0.734375 -1.453125 1.984375q-0.421875 1.234375 -0.421875 2.5625q0 1.703125 0.5 2.96875q0.5 1.265625 1.546875 1.90625q1.046875 0.625 2.265625 0.625q1.484375 0 2.515625 -0.859375q1.03125 -0.859375 1.390625 -2.546875z" fill-rule="nonzero"/><path fill="#a4c2f4" d="m275.48294 39.034233l0 0c0 -3.122429 2.5312195 -5.653656 5.653656 -5.653656l41.480103 0c1.4994202 0 2.9374695 0.59565353 3.9977112 1.6559181c1.0602722 1.0602646 1.6559448 2.4982948 1.6559448 3.997738l0 22.613949c0 3.122425 -2.53125 5.653652 -5.653656 5.653652l-41.480103 0c-3.1224365 0 -5.653656 -2.531227 -5.653656 -5.653652z" fill-rule="evenodd"/><path stroke="#000000" stroke-width="1.0" stroke-linejoin="round" stroke-linecap="butt" d="m275.48294 39.034233l0 0c0 -3.122429 2.5312195 -5.653656 5.653656 -5.653656l41.480103 0c1.4994202 0 2.9374695 0.59565353 3.9977112 1.6559181c1.0602722 1.0602646 1.6559448 2.4982948 1.6559448 3.997738l0 22.613949c0 3.122425 -2.53125 5.653652 -5.653656 5.653652l-41.480103 0c-3.1224365 0 -5.653656 -2.531227 -5.653656 -5.653652z" fill-rule="evenodd"/><path fill="#000000" d="m290.3119 55.141205l0 -9.546875l3.59375 0q0.953125 0 1.453125 0.09375q0.703125 0.125 1.171875 0.453125q0.484375 0.328125 0.765625 0.921875q0.296875 0.59375 0.296875 1.296875q0 1.21875 -0.78125 2.0625q-0.765625 0.84375 -2.796875 0.84375l-2.4375 0l0 3.875l-1.265625 0zm1.265625 -5.0l2.453125 0q1.234375 0 1.75 -0.453125q0.515625 -0.46875 0.515625 -1.28125q0 -0.609375 -0.3125 -1.03125q-0.296875 -0.421875 -0.796875 -0.5625q-0.3125 -0.09375 -1.171875 -0.09375l-2.4375 0l0 3.421875zm7.1866455 1.9375l1.203125 -0.109375q0.078125 0.71875 0.390625 1.1875q0.3125 0.453125 0.953125 0.734375q0.65625 0.28125 1.46875 0.28125q0.71875 0 1.265625 -0.21875q0.5625 -0.21875 0.828125 -0.578125q0.265625 -0.375 0.265625 -0.828125q0 -0.453125 -0.265625 -0.78125q-0.25 -0.328125 -0.84375 -0.5625q-0.390625 -0.15625 -1.703125 -0.46875q-1.3125 -0.3125 -1.84375 -0.59375q-0.671875 -0.359375 -1.015625 -0.890625q-0.328125 -0.53125 -0.328125 -1.1875q0 -0.71875 0.40625 -1.34375q0.40625 -0.625 1.1875 -0.953125q0.796875 -0.328125 1.765625 -0.328125q1.046875 0 1.859375 0.34375q0.8125 0.34375 1.25 1.015625q0.4375 0.65625 0.46875 1.484375l-1.203125 0.09375q-0.109375 -0.90625 -0.671875 -1.359375q-0.5625 -0.46875 -1.65625 -0.46875q-1.140625 0 -1.671875 0.421875q-0.515625 0.421875 -0.515625 1.015625q0 0.515625 0.359375 0.84375q0.375 0.328125 1.90625 0.6875q1.546875 0.34375 2.109375 0.59375q0.84375 0.390625 1.234375 0.984375q0.390625 0.578125 0.390625 1.359375q0 0.75 -0.4375 1.4375q-0.421875 0.671875 -1.25 1.046875q-0.8125 0.359375 -1.828125 0.359375q-1.296875 0 -2.171875 -0.375q-0.875 -0.375 -1.375 -1.125q-0.5 -0.765625 -0.53125 -1.71875zm13.26474 3.0625l-1.171875 0l0 -7.46875q-0.421875 0.40625 -1.109375 0.8125q-0.6875 0.40625 -1.234375 0.609375l0 -1.140625q0.984375 -0.453125 1.71875 -1.109375q0.734375 -0.671875 1.03125 -1.28125l0.765625 0l0 9.578125z" fill-rule="nonzero"/><path fill="#a4c2f4" d="m275.48294 87.62479l0 0c0 -3.122429 2.5312195 -5.653656 5.653656 -5.653656l41.480103 0c1.4994202 0 2.9374695 0.5956497 3.9977112 1.6559143c1.0602722 1.0602646 1.6559448 2.4982986 1.6559448 3.9977417l0 22.613945c0 3.122429 -2.53125 5.653656 -5.653656 5.653656l-41.480103 0c-3.1224365 0 -5.653656 -2.531227 -5.653656 -5.653656z" fill-rule="evenodd"/><path stroke="#000000" stroke-width="1.0" stroke-linejoin="round" stroke-linecap="butt" d="m275.48294 87.62479l0 0c0 -3.122429 2.5312195 -5.653656 5.653656 -5.653656l41.480103 0c1.4994202 0 2.9374695 0.5956497 3.9977112 1.6559143c1.0602722 1.0602646 1.6559448 2.4982986 1.6559448 3.9977417l0 22.613945c0 3.122429 -2.53125 5.653656 -5.653656 5.653656l-41.480103 0c-3.1224365 0 -5.653656 -2.531227 -5.653656 -5.653656z" fill-rule="evenodd"/><path fill="#000000" d="m290.3119 103.73176l0 -9.546875l3.59375 0q0.953125 0 1.453125 0.09375q0.703125 0.125 1.171875 0.453125q0.484375 0.328125 0.765625 0.921875q0.296875 0.59375 0.296875 1.296875q0 1.21875 -0.78125 2.0625q-0.765625 0.84375 -2.796875 0.84375l-2.4375 0l0 3.875l-1.265625 0zm1.265625 -5.0l2.453125 0q1.234375 0 1.75 -0.453125q0.515625 -0.46875 0.515625 -1.28125q0 -0.609375 -0.3125 -1.03125q-0.296875 -0.421875 -0.796875 -0.5625q-0.3125 -0.09375 -1.171875 -0.09375l-2.4375 0l0 3.421875zm7.1866455 1.9375l1.203125 -0.109375q0.078125 0.71875 0.390625 1.1875q0.3125 0.453125 0.953125 0.734375q0.65625 0.28125 1.46875 0.28125q0.71875 0 1.265625 -0.21875q0.5625 -0.21875 0.828125 -0.578125q0.265625 -0.375 0.265625 -0.828125q0 -0.453125 -0.265625 -0.78125q-0.25 -0.328125 -0.84375 -0.5625q-0.390625 -0.15625 -1.703125 -0.46875q-1.3125 -0.3125 -1.84375 -0.59375q-0.671875 -0.359375 -1.015625 -0.890625q-0.328125 -0.53125 -0.328125 -1.1875q0 -0.71875 0.40625 -1.34375q0.40625 -0.625 1.1875 -0.953125q0.796875 -0.328125 1.765625 -0.328125q1.046875 0 1.859375 0.34375q0.8125 0.34375 1.25 1.015625q0.4375 0.65625 0.46875 1.484375l-1.203125 0.09375q-0.109375 -0.90625 -0.671875 -1.359375q-0.5625 -0.46875 -1.65625 -0.46875q-1.140625 0 -1.671875 0.421875q-0.515625 0.421875 -0.515625 1.015625q0 0.515625 0.359375 0.84375q0.375 0.328125 1.90625 0.6875q1.546875 0.34375 2.109375 0.59375q0.84375 0.390625 1.234375 0.984375q0.390625 0.578125 0.390625 1.359375q0 0.75 -0.4375 1.4375q-0.421875 0.671875 -1.25 1.046875q-0.8125 0.359375 -1.828125 0.359375q-1.296875 0 -2.171875 -0.375q-0.875 -0.375 -1.375 -1.125q-0.5 -0.765625 -0.53125 -1.71875zm14.999115 1.9375l0 1.125l-6.296875 0q-0.015625 -0.421875 0.140625 -0.8125q0.234375 -0.640625 0.765625 -1.265625q0.53125 -0.625 1.53125 -1.453125q1.5625 -1.265625 2.109375 -2.015625q0.546875 -0.75 0.546875 -1.40625q0 -0.703125 -0.5 -1.171875q-0.5 -0.484375 -1.296875 -0.484375q-0.859375 0 -1.375 0.515625q-0.5 0.5 -0.5 1.390625l-1.203125 -0.109375q0.125 -1.359375 0.921875 -2.0625q0.8125 -0.703125 2.171875 -0.703125q1.375 0 2.171875 0.765625q0.8125 0.75 0.8125 1.875q0 0.578125 -0.234375 1.140625q-0.234375 0.546875 -0.78125 1.15625q-0.546875 0.609375 -1.8125 1.671875q-1.046875 0.890625 -1.359375 1.21875q-0.296875 0.3125 -0.484375 0.625l4.671875 0z" fill-rule="nonzero"/><path fill="#a4c2f4" d="m275.48294 136.21533l0 0c0 -3.1224213 2.5312195 -5.653656 5.653656 -5.653656l41.480103 0c1.4994202 0 2.9374695 0.59565735 3.9977112 1.6559143c1.0602722 1.0602722 1.6559448 2.4983063 1.6559448 3.9977417l0 22.613953c0 3.1224213 -2.53125 5.653656 -5.653656 5.653656l-41.480103 0c-3.1224365 0 -5.653656 -2.5312347 -5.653656 -5.653656z" fill-rule="evenodd"/><path stroke="#000000" stroke-width="1.0" stroke-linejoin="round" stroke-linecap="butt" d="m275.48294 136.21533l0 0c0 -3.1224213 2.5312195 -5.653656 5.653656 -5.653656l41.480103 0c1.4994202 0 2.9374695 0.59565735 3.9977112 1.6559143c1.0602722 1.0602722 1.6559448 2.4983063 1.6559448 3.9977417l0 22.613953c0 3.1224213 -2.53125 5.653656 -5.653656 5.653656l-41.480103 0c-3.1224365 0 -5.653656 -2.5312347 -5.653656 -5.653656z" fill-rule="evenodd"/><path fill="#000000" d="m297.52527 152.32231l0 -1.328125l1.34375 0l0 1.328125l-1.34375 0zm3.703003 0l0 -1.328125l1.34375 0l0 1.328125l-1.34375 0zm3.7029724 0l0 -1.328125l1.34375 0l0 1.328125l-1.34375 0z" fill-rule="nonzero"/><path fill="#000000" fill-opacity="0.0" d="m88.71391 74.931755l-23.40158 0" fill-rule="evenodd"/><path stroke="#000000" stroke-width="1.0" stroke-linejoin="round" stroke-linecap="butt" d="m88.71391 74.931755l-17.40158 0" fill-rule="evenodd"/><path fill="#000000" stroke="#000000" stroke-width="1.0" stroke-linecap="butt" d="m71.31233 73.28003l-4.5380936 1.6517258l4.5380936 1.6517334z" fill-rule="evenodd"/><path fill="#000000" fill-opacity="0.0" d="m164.89502 74.931755l-23.40158 0" fill-rule="evenodd"/><path stroke="#000000" stroke-width="1.0" stroke-linejoin="round" stroke-linecap="butt" d="m164.89502 74.931755l-17.40158 0" fill-rule="evenodd"/><path fill="#000000" stroke="#000000" stroke-width="1.0" stroke-linecap="butt" d="m147.49344 73.28003l-4.538101 1.6517258l4.538101 1.6517334z" fill-rule="evenodd"/><path fill="#000000" fill-opacity="0.0" d="m275.48294 50.341206l-54.83464 11.055119" fill-rule="evenodd"/><path stroke="#000000" stroke-width="1.0" stroke-linejoin="round" stroke-linecap="butt" d="m275.48294 50.341206l-48.952988 9.869328" fill-rule="evenodd"/><path fill="#000000" stroke="#000000" stroke-width="1.0" stroke-linecap="butt" d="m226.20352 58.59138l-4.122162 2.5160255l4.7750244 0.7222824z" fill-rule="evenodd"/><path fill="#000000" fill-opacity="0.0" d="m275.48294 98.931755l-57.795273 -24.0" fill-rule="evenodd"/><path stroke="#000000" stroke-width="1.0" stroke-linejoin="round" stroke-linecap="butt" d="m275.48294 98.931755l-52.254044 -21.698952" fill-rule="evenodd"/><path fill="#000000" stroke="#000000" stroke-width="1.0" stroke-linecap="butt" d="m223.86234 75.70737l-4.8245544 -0.21495819l3.557663 3.265831z" fill-rule="evenodd"/><path fill="#ffe599" d="m156.6588 3.9868767l65.22826 0l4.283554 4.2835503l0 21.417236l-69.51181 0z" fill-rule="evenodd"/><path stroke="#000000" stroke-width="1.0" stroke-linejoin="round" stroke-linecap="butt" d="m156.6588 3.9868767l65.22826 0l4.283554 4.2835503l0 21.417236l-69.51181 0z" fill-rule="evenodd"/><path fill="#000000" d="m167.4903 18.510033q0 -1.15625 0.640625 -1.703125q0.53125 -0.46875 1.3125 -0.46875q0.84375 0 1.390625 0.5625q0.546875 0.5625 0.546875 1.546875q0 0.8125 -0.25 1.265625q-0.234375 0.453125 -0.703125 0.71875q-0.453125 0.25 -0.984375 0.25q-0.875 0 -1.421875 -0.5625q-0.53125 -0.5625 -0.53125 -1.609375zm0.71875 0q0 0.796875 0.34375 1.203125q0.359375 0.390625 0.890625 0.390625q0.515625 0 0.859375 -0.390625q0.359375 -0.40625 0.359375 -1.21875q0 -0.78125 -0.359375 -1.171875q-0.34375 -0.390625 -0.859375 -0.390625q-0.53125 0 -0.890625 0.390625q-0.34375 0.390625 -0.34375 1.1875zm3.9804688 2.078125l0 -4.15625l0.640625 0l0 0.640625q0.234375 -0.453125 0.4375 -0.59375q0.21875 -0.140625 0.453125 -0.140625q0.359375 0 0.734375 0.234375l-0.25 0.65625q-0.25 -0.15625 -0.515625 -0.15625q-0.234375 0 -0.421875 0.140625q-0.171875 0.140625 -0.25 0.375q-0.125 0.375 -0.125 0.828125l0 2.171875l-0.703125 0zm2.6796875 -4.921875l0 -0.8125l0.703125 0l0 0.8125l-0.703125 0zm0 4.921875l0 -4.15625l0.703125 0l0 4.15625l-0.703125 0zm1.6523438 0.34375l0.671875 0.109375q0.046875 0.3125 0.25 0.453125q0.25 0.203125 0.703125 0.203125q0.5 0 0.765625 -0.203125q0.265625 -0.1875 0.359375 -0.546875q0.046875 -0.21875 0.046875 -0.90625q-0.46875 0.546875 -1.15625 0.546875q-0.84375 0 -1.3125 -0.609375q-0.46875 -0.625 -0.46875 -1.484375q0 -0.59375 0.203125 -1.09375q0.21875 -0.515625 0.625 -0.78125q0.40625 -0.28125 0.96875 -0.28125q0.734375 0 1.203125 0.59375l0 -0.5l0.65625 0l0 3.59375q0 0.96875 -0.203125 1.375q-0.203125 0.40625 -0.625 0.640625q-0.421875 0.2343769 -1.046875 0.2343769q-0.75 0 -1.203125 -0.3437519q-0.453125 -0.328125 -0.4375 -1.0zm0.578125 -2.5q0 0.828125 0.3125 1.203125q0.328125 0.375 0.828125 0.375q0.484375 0 0.8125 -0.375q0.328125 -0.375 0.328125 -1.171875q0 -0.765625 -0.34375 -1.140625q-0.34375 -0.390625 -0.8125 -0.390625q-0.46875 0 -0.796875 0.375q-0.328125 0.375 -0.328125 1.125zm3.9960938 -2.765625l0 -0.8125l0.703125 0l0 0.8125l-0.703125 0zm0 4.921875l0 -4.15625l0.703125 0l0 4.15625l-0.703125 0zm1.7773438 0l0 -4.15625l0.625 0l0 0.59375q0.46875 -0.6875 1.328125 -0.6875q0.375 0 0.6875 0.140625q0.3125 0.140625 0.46875 0.359375q0.15625 0.21875 0.21875 0.515625q0.046875 0.1875 0.046875 0.6875l0 2.546875l-0.703125 0l0 -2.53125q0 -0.421875 -0.09375 -0.625q-0.078125 -0.21875 -0.296875 -0.34375q-0.203125 -0.140625 -0.484375 -0.140625q-0.4375 0 -0.765625 0.296875q-0.328125 0.28125 -0.328125 1.078125l0 2.265625l-0.703125 0zm3.9179688 0.09375l1.65625 -5.921875l0.5625 0l-1.65625 5.921875l-0.5625 0zm2.7539062 -0.09375l0 -4.15625l0.625 0l0 0.59375q0.203125 -0.3125 0.515625 -0.5q0.328125 -0.1875 0.75 -0.1875q0.453125 0 0.75 0.203125q0.296875 0.1875 0.421875 0.53125q0.484375 -0.734375 1.28125 -0.734375q0.609375 0 0.9375 0.34375q0.34375 0.34375 0.34375 1.0625l0 2.84375l-0.703125 0l0 -2.609375q0 -0.421875 -0.078125 -0.609375q-0.0625 -0.1875 -0.25 -0.296875q-0.171875 -0.125 -0.40625 -0.125q-0.4375 0 -0.734375 0.296875q-0.28125 0.296875 -0.28125 0.9375l0 2.40625l-0.703125 0l0 -2.703125q0 -0.46875 -0.171875 -0.703125q-0.171875 -0.234375 -0.5625 -0.234375q-0.296875 0 -0.5625 0.15625q-0.25 0.15625 -0.359375 0.46875q-0.109375 0.296875 -0.109375 0.859375l0 2.15625l-0.703125 0zm9.3671875 -0.515625q-0.390625 0.328125 -0.75 0.46875q-0.359375 0.140625 -0.78125 0.140625q-0.671875 0 -1.046875 -0.328125q-0.359375 -0.34375 -0.359375 -0.859375q0 -0.3125 0.125 -0.5625q0.140625 -0.25 0.359375 -0.390625q0.234375 -0.15625 0.515625 -0.234375q0.203125 -0.0625 0.625 -0.109375q0.859375 -0.109375 1.25 -0.25q0.015625 -0.140625 0.015625 -0.171875q0 -0.4375 -0.203125 -0.609375q-0.265625 -0.234375 -0.796875 -0.234375q-0.5 0 -0.734375 0.171875q-0.234375 0.171875 -0.359375 0.609375l-0.6875 -0.09375q0.09375 -0.4375 0.3125 -0.703125q0.21875 -0.28125 0.625 -0.421875q0.40625 -0.15625 0.9375 -0.15625q0.53125 0 0.859375 0.125q0.34375 0.125 0.5 0.328125q0.15625 0.1875 0.21875 0.46875q0.03125 0.1875 0.03125 0.65625l0 0.9375q0 0.96875 0.046875 1.234375q0.046875 0.265625 0.171875 0.5l-0.734375 0q-0.109375 -0.21875 -0.140625 -0.515625zm-0.0625 -1.5625q-0.375 0.15625 -1.140625 0.265625q-0.4375 0.0625 -0.625 0.140625q-0.171875 0.078125 -0.265625 0.234375q-0.09375 0.140625 -0.09375 0.328125q0 0.28125 0.203125 0.46875q0.21875 0.1875 0.625 0.1875q0.40625 0 0.71875 -0.171875q0.328125 -0.1875 0.46875 -0.5q0.109375 -0.234375 0.109375 -0.703125l0 -0.25zm1.5273438 0.84375l0.6875 -0.109375q0.0625 0.40625 0.328125 0.640625q0.265625 0.21875 0.75 0.21875q0.484375 0 0.71875 -0.1875q0.234375 -0.203125 0.234375 -0.46875q0 -0.25 -0.203125 -0.375q-0.140625 -0.09375 -0.71875 -0.25q-0.78125 -0.1875 -1.078125 -0.328125q-0.296875 -0.140625 -0.453125 -0.390625q-0.15625 -0.265625 -0.15625 -0.5625q0 -0.28125 0.125 -0.515625q0.140625 -0.234375 0.359375 -0.390625q0.15625 -0.125 0.4375 -0.203125q0.28125 -0.09375 0.609375 -0.09375q0.484375 0 0.859375 0.140625q0.375 0.140625 0.546875 0.390625q0.171875 0.234375 0.234375 0.640625l-0.6875 0.09375q-0.046875 -0.328125 -0.265625 -0.5q-0.21875 -0.1875 -0.640625 -0.1875q-0.484375 0 -0.6875 0.171875q-0.203125 0.15625 -0.203125 0.375q0 0.125 0.078125 0.234375q0.09375 0.125 0.28125 0.1875q0.09375 0.046875 0.609375 0.1875q0.75 0.203125 1.046875 0.328125q0.296875 0.125 0.453125 0.375q0.171875 0.234375 0.171875 0.59375q0 0.34375 -0.203125 0.65625q-0.203125 0.3125 -0.59375 0.484375q-0.375 0.171875 -0.875 0.171875q-0.796875 0 -1.234375 -0.328125q-0.421875 -0.34375 -0.53125 -1.0zm5.8125 0.609375l0.109375 0.609375q-0.296875 0.078125 -0.53125 0.078125q-0.390625 0 -0.609375 -0.125q-0.203125 -0.125 -0.296875 -0.3125q-0.078125 -0.203125 -0.078125 -0.84375l0 -2.390625l-0.515625 0l0 -0.546875l0.515625 0l0 -1.015625l0.703125 -0.421875l0 1.4375l0.703125 0l0 0.546875l-0.703125 0l0 2.4375q0 0.296875 0.03125 0.390625q0.046875 0.078125 0.125 0.125q0.078125 0.046875 0.234375 0.046875q0.125 0 0.3125 -0.015625zm3.5351562 -0.71875l0.71875 0.09375q-0.171875 0.640625 -0.640625 1.0q-0.453125 0.34375 -1.1875 0.34375q-0.90625 0 -1.4375 -0.5625q-0.53125 -0.5625 -0.53125 -1.578125q0 -1.046875 0.53125 -1.625q0.546875 -0.578125 1.40625 -0.578125q0.828125 0 1.359375 0.578125q0.53125 0.5625 0.53125 1.59375q0 0.0625 -0.015625 0.1875l-3.09375 0q0.046875 0.671875 0.390625 1.046875q0.34375 0.359375 0.875 0.359375q0.375 0 0.640625 -0.203125q0.28125 -0.203125 0.453125 -0.65625zm-2.3125 -1.125l2.3125 0q-0.046875 -0.53125 -0.265625 -0.796875q-0.328125 -0.40625 -0.875 -0.40625q-0.484375 0 -0.8125 0.328125q-0.328125 0.328125 -0.359375 0.875zm3.9023438 2.46875l0 -4.15625l0.640625 0l0 0.640625q0.234375 -0.453125 0.4375 -0.59375q0.21875 -0.140625 0.453125 -0.140625q0.359375 0 0.734375 0.234375l-0.25 0.65625q-0.25 -0.15625 -0.515625 -0.15625q-0.234375 0 -0.421875 0.140625q-0.171875 0.140625 -0.25 0.375q-0.125 0.375 -0.125 0.828125l0 2.171875l-0.703125 0z" fill-rule="nonzero"/><path fill="#000000" fill-opacity="0.0" d="m191.4147 29.687664l-0.12599182 28.283466" fill-rule="evenodd"/><path stroke="#000000" stroke-width="1.0" stroke-linejoin="round" stroke-linecap="butt" d="m191.4147 29.687664l-0.09927368 22.283527" fill-rule="evenodd"/><path stroke="#000000" stroke-width="1.0" stroke-linecap="butt" d="m189.66373 51.963833l1.6315002 4.5454063l1.671936 -4.530693z" fill-rule="evenodd"/><path fill="#000000" fill-opacity="0.0" d="m275.48294 147.52231l-54.48819 -57.196846" fill-rule="evenodd"/><path stroke="#000000" stroke-width="1.0" stroke-linejoin="round" stroke-linecap="butt" d="m275.48294 147.52231l-50.349655 -52.852585" fill-rule="evenodd"/><path fill="#000000" stroke="#000000" stroke-width="1.0" stroke-linecap="butt" d="m226.32921 93.530426l-4.326111 -2.1464844l1.9342499 4.425064z" fill-rule="evenodd"/><path fill="#000000" fill-opacity="0.0" d="m261.98425 3.6692913l63.18109 0l0 26.141733l-63.18109 0z" fill-rule="evenodd"/><path fill="#000000" d="m271.60925 20.34929l0 -5.734374l2.546875 0q0.765625 0 1.15625 0.15625q0.40625 0.15625 0.640625 0.546875q0.234375 0.390625 0.234375 0.85937405q0 0.609375 -0.390625 1.03125q-0.390625 0.421875 -1.21875 0.53125q0.296875 0.140625 0.453125 0.28125q0.34375 0.3125 0.640625 0.765625l0.984375 1.5625l-0.953125 0l-0.75 -1.1875q-0.328125 -0.515625 -0.546875 -0.78125q-0.21875 -0.28125 -0.390625 -0.390625q-0.171875 -0.109375 -0.34375 -0.15625q-0.125 -0.03125 -0.421875 -0.03125l-0.875 0l0 2.546875l-0.765625 0zm0.765625 -3.203125l1.625 0q0.515625 0 0.8125 -0.109375q0.296875 -0.109375 0.4375 -0.34375q0.15625 -0.234375 0.15625 -0.515625q0 -0.40624905 -0.296875 -0.65624905q-0.28125 -0.265625 -0.921875 -0.265625l-1.8125 0l0 1.890624zm7.7617188 1.859375l0.71875 0.09375q-0.171875 0.640625 -0.640625 1.0q-0.453125 0.34375 -1.1875 0.34375q-0.90625 0 -1.4375 -0.5625q-0.53125 -0.5625 -0.53125 -1.578125q0 -1.046875 0.53125 -1.625q0.546875 -0.578125 1.40625 -0.578125q0.828125 0 1.359375 0.578125q0.53125 0.5625 0.53125 1.59375q0 0.0625 -0.015625 0.1875l-3.09375 0q0.046875 0.671875 0.390625 1.046875q0.34375 0.359375 0.875 0.359375q0.375 0 0.640625 -0.203125q0.28125 -0.203125 0.453125 -0.65625zm-2.3125 -1.125l2.3125 0q-0.046875 -0.53125 -0.265625 -0.796875q-0.328125 -0.40625 -0.875 -0.40625q-0.484375 0 -0.8125 0.328125q-0.328125 0.328125 -0.359375 0.875zm5.0742188 2.46875l-1.578125 -4.15625l0.734375 0l0.890625 2.484375q0.140625 0.40625 0.265625 0.84375q0.09375 -0.328125 0.265625 -0.796875l0.921875 -2.53125l0.71875 0l-1.5625 4.15625l-0.65625 0zm2.84375 -4.921874l0 -0.8125l0.703125 0l0 0.8125l-0.703125 0zm0 4.921874l0 -4.15625l0.703125 0l0 4.15625l-0.703125 0zm4.6210938 -1.34375l0.71875 0.09375q-0.171875 0.640625 -0.640625 1.0q-0.453125 0.34375 -1.1875 0.34375q-0.90625 0 -1.4375 -0.5625q-0.53125 -0.5625 -0.53125 -1.578125q0 -1.046875 0.53125 -1.625q0.546875 -0.578125 1.40625 -0.578125q0.828125 0 1.359375 0.578125q0.53125 0.5625 0.53125 1.59375q0 0.0625 -0.015625 0.1875l-3.09375 0q0.046875 0.671875 0.390625 1.046875q0.34375 0.359375 0.875 0.359375q0.375 0 0.640625 -0.203125q0.28125 -0.203125 0.453125 -0.65625zm-2.3125 -1.125l2.3125 0q-0.046875 -0.53125 -0.265625 -0.796875q-0.328125 -0.40625 -0.875 -0.40625q-0.484375 0 -0.8125 0.328125q-0.328125 0.328125 -0.359375 0.875zm4.6835938 2.46875l-1.265625 -4.15625l0.71875 0l0.65625 2.40625l0.25 0.890625q0.015625 -0.078125 0.21875 -0.859375l0.65625 -2.4375l0.71875 0l0.625 2.40625l0.203125 0.796875l0.25 -0.796875l0.703125 -2.40625l0.6875 0l-1.296875 4.15625l-0.734375 0l-0.65625 -2.484375l-0.15625 -0.703125l-0.84375 3.1875l-0.734375 0zm9.6875 0l-0.703125 0l0 -4.484374q-0.25 0.24999905 -0.671875 0.49999905q-0.40625 0.234375 -0.734375 0.34375l0 -0.671875q0.59375 -0.28124905 1.03125 -0.67187405q0.4375 -0.390625 0.625 -0.765625l0.453125 0l0 5.749999zm5.4960938 -0.671875l0 0.671875l-3.78125 0q-0.015625 -0.25 0.078125 -0.484375q0.140625 -0.390625 0.453125 -0.765625q0.328125 -0.375 0.921875 -0.875q0.9375 -0.765625 1.265625 -1.203125q0.328125 -0.453125 0.328125 -0.84375q0 -0.42187405 -0.296875 -0.70312405q-0.296875 -0.296875 -0.78125 -0.296875q-0.5 0 -0.8125 0.3125q-0.296875 0.296875 -0.3125 0.84374905l-0.71875 -0.078125q0.078125 -0.81249905 0.5625 -1.234374q0.484375 -0.421875 1.296875 -0.421875q0.828125 0 1.296875 0.453125q0.484375 0.453125 0.484375 1.140624q0 0.34375 -0.140625 0.671875q-0.140625 0.328125 -0.46875 0.703125q-0.3125 0.359375 -1.078125 1.0q-0.625 0.53125 -0.8125 0.71875q-0.171875 0.1875 -0.296875 0.390625l2.8125 0zm0.76171875 -0.84375l0.703125 -0.09375q0.109375 0.59375 0.40625 0.859375q0.296875 0.265625 0.703125 0.265625q0.5 0 0.84375 -0.34375q0.34375 -0.34375 0.34375 -0.84375q0 -0.484375 -0.328125 -0.796875q-0.3125 -0.328125 -0.796875 -0.328125q-0.203125 0 -0.5 0.078125l0.078125 -0.609375q0.078125 0 0.125 0q0.4375 0 0.796875 -0.234375q0.359375 -0.234375 0.359375 -0.71875q0 -0.39062405 -0.265625 -0.64062405q-0.25 -0.25 -0.671875 -0.25q-0.40625 0 -0.6875 0.265625q-0.265625 0.25 -0.34375 0.76562405l-0.703125 -0.125q0.125 -0.70312405 0.578125 -1.093749q0.46875 -0.390625 1.140625 -0.390625q0.46875 0 0.859375 0.203125q0.40625 0.203125 0.609375 0.546875q0.21875 0.34375 0.21875 0.73437405q0 0.375 -0.203125 0.6875q-0.203125 0.296875 -0.59375 0.46875q0.515625 0.125 0.796875 0.5q0.28125 0.359375 0.28125 0.921875q0 0.75 -0.546875 1.28125q-0.546875 0.515625 -1.390625 0.515625q-0.75 0 -1.25 -0.453125q-0.5 -0.453125 -0.5625 -1.171875z" fill-rule="nonzero"/></g></svg>