<svg version="1.1" viewBox="0.0 0.0 382.6456692913386 151.9002624671916" fill="none" stroke="none" stroke-linecap="square" stroke-miterlimit="10" xmlns:xlink="http://www.w3.org/1999/xlink" xmlns="http://www.w3.org/2000/svg"><clipPath id="p.0"><path d="m0 0l382.64566 0l0 151.90027l-382.64566 0l0 -151.90027z" clip-rule="nonzero"/></clipPath><g clip-path="url(#p.0)"><path fill="#ffffff" d="m0 0l382.64566 0l0 151.90027l-382.64566 0z" fill-rule="evenodd"/><path fill="#b6d7a8" d="m12.532808 63.624786l0 0c0 -3.122429 2.531228 -5.653656 5.653656 -5.653656l41.480087 0c1.499443 0 2.9374733 0.5956497 3.997738 1.6559143c1.0602646 1.0602684 1.6559219 2.4982986 1.6559219 3.9977417l0 22.613945c0 3.122429 -2.531231 5.653656 -5.65366 5.653656l-41.480087 0c-3.122428 0 -5.653656 -2.531227 -5.653656 -5.653656z" fill-rule="evenodd"/><path stroke="#000000" stroke-width="1.0" stroke-linejoin="round" stroke-linecap="butt" d="m12.532808 63.624786l0 0c0 -3.122429 2.531228 -5.653656 5.653656 -5.653656l41.480087 0c1.499443 0 2.9374733 0.5956497 3.997738 1.6559143c1.0602646 1.0602684 1.6559219 2.4982986 1.6559219 3.9977417l0 22.613945c0 3.122429 -2.531231 5.653656 -5.65366 5.653656l-41.480087 0c-3.122428 0 -5.653656 -2.531227 -5.653656 -5.653656z" fill-rule="evenodd"/><path fill="#000000" d="m32.673473 81.85175l5.125 -13.359375l1.90625 0l5.46875 13.359375l-2.015625 0l-1.546875 -4.046875l-5.59375 0l-1.46875 4.046875l-1.875 0zm3.859375 -5.484375l4.53125 0l-1.40625 -3.703125q-0.625 -1.6875 -0.9375 -2.765625q-0.265625 1.28125 -0.71875 2.546875l-1.46875 3.921875z" fill-rule="nonzero"/><path fill="#b6d7a8" d="m88.71391 63.624786l0 0c0 -3.122429 2.531227 -5.653656 5.653656 -5.653656l41.480087 0c1.4994354 0 2.9374695 0.5956497 3.9977417 1.6559143c1.060257 1.0602684 1.6559143 2.4982986 1.6559143 3.9977417l0 22.613945c0 3.122429 -2.5312347 5.653656 -5.653656 5.653656l-41.480087 0c-3.122429 0 -5.653656 -2.531227 -5.653656 -5.653656z" fill-rule="evenodd"/><path stroke="#000000" stroke-width="1.0" stroke-linejoin="round" stroke-linecap="butt" d="m88.71391 63.624786l0 0c0 -3.122429 2.531227 -5.653656 5.653656 -5.653656l41.480087 0c1.4994354 0 2.9374695 0.5956497 3.9977417 1.6559143c1.060257 1.0602684 1.6559143 2.4982986 1.6559143 3.9977417l0 22.613945c0 3.122429 -2.5312347 5.653656 -5.653656 5.653656l-41.480087 0c-3.122429 0 -5.653656 -2.531227 -5.653656 -5.653656z" fill-rule="evenodd"/><path fill="#000000" d="m110.2452 81.85175l0 -13.359375l5.015625 0q1.53125 0 2.453125 0.40625q0.921875 0.40625 1.4375 1.25q0.53125 0.84375 0.53125 1.765625q0 0.859375 -0.46875 1.625q-0.453125 0.75 -1.390625 1.203125q1.203125 0.359375 1.859375 1.21875q0.65625 0.859375 0.65625 2.015625q0 0.9375 -0.40625 1.75q-0.390625 0.796875 -0.984375 1.234375q-0.578125 0.4375 -1.453125 0.671875q-0.875 0.21875 -2.15625 0.21875l-5.09375 0zm1.78125 -7.75l2.875 0q1.1875 0 1.6875 -0.140625q0.671875 -0.203125 1.015625 -0.671875q0.34375 -0.46875 0.34375 -1.171875q0 -0.65625 -0.328125 -1.15625q-0.3125 -0.515625 -0.90625 -0.703125q-0.59375 -0.1875 -2.03125 -0.1875l-2.65625 0l0 4.03125zm0 6.171875l3.3125 0q0.859375 0 1.203125 -0.0625q0.609375 -0.109375 1.015625 -0.359375q0.421875 -0.265625 0.6875 -0.75q0.265625 -0.484375 0.265625 -1.125q0 -0.75 -0.390625 -1.296875q-0.375 -0.546875 -1.0625 -0.765625q-0.671875 -0.234375 -1.953125 -0.234375l-3.078125 0l0 4.59375z" fill-rule="nonzero"/><path fill="#b6d7a8" d="m164.89502 63.624786l0 0c0 -3.122429 2.5312195 -5.653656 5.653656 -5.653656l41.480087 0c1.4994354 0 2.9374695 0.5956497 3.9977417 1.6559143c1.060257 1.0602684 1.6559143 2.4982986 1.6559143 3.9977417l0 22.613945c0 3.122429 -2.5312347 5.653656 -5.653656 5.653656l-41.480087 0c-3.1224365 0 -5.653656 -2.531227 -5.653656 -5.653656z" fill-rule="evenodd"/><path stroke="#000000" stroke-width="1.0" stroke-linejoin="round" stroke-linecap="butt" d="m164.89502 63.624786l0 0c0 -3.122429 2.5312195 -5.653656 5.653656 -5.653656l41.480087 0c1.4994354 0 2.9374695 0.5956497 3.9977417 1.6559143c1.060257 1.0602684 1.6559143 2.4982986 1.6559143 3.9977417l0 22.613945c0 3.122429 -2.5312347 5.653656 -5.653656 5.653656l-41.480087 0c-3.1224365 0 -5.653656 -2.531227 -5.653656 -5.653656z" fill-rule="evenodd"/><path fill="#000000" d="m195.521 77.16425l1.765625 0.453125q-0.5625 2.171875 -2.0 3.328125q-1.4375 1.140625 -3.53125 1.140625q-2.15625 0 -3.515625 -0.875q-1.34375 -0.890625 -2.0625 -2.546875q-0.703125 -1.671875 -0.703125 -3.59375q0 -2.078125 0.796875 -3.625q0.796875 -1.5625 2.265625 -2.359375q1.484375 -0.8125 3.25 -0.8125q2.0 0 3.359375 1.015625q1.375 1.015625 1.90625 2.875l-1.734375 0.40625q-0.46875 -1.453125 -1.359375 -2.109375q-0.875 -0.671875 -2.203125 -0.671875q-1.546875 0 -2.578125 0.734375q-1.03125 0.734375 -1.453125 1.984375q-0.421875 1.234375 -0.421875 2.5625q0 1.703125 0.5 2.96875q0.5 1.265625 1.546875 1.90625q1.046875 0.625 2.265625 0.625q1.484375 0 2.515625 -0.859375q1.03125 -0.859375 1.390625 -2.546875z" fill-rule="nonzero"/><path fill="#b6d7a8" d="m243.87927 63.624786l0 0c0 -3.122429 2.5312195 -5.653656 5.653656 -5.653656l41.480072 0c1.4994507 0 2.9374695 0.5956497 3.9977417 1.6559143c1.0602722 1.0602684 1.6559143 2.4982986 1.6559143 3.9977417l0 22.613945c0 3.122429 -2.5312195 5.653656 -5.653656 5.653656l-41.480072 0c-3.1224365 0 -5.653656 -2.531227 -5.653656 -5.653656z" fill-rule="evenodd"/><path stroke="#000000" stroke-width="1.0" stroke-linejoin="round" stroke-linecap="butt" d="m243.87927 63.624786l0 0c0 -3.122429 2.5312195 -5.653656 5.653656 -5.653656l41.480072 0c1.4994507 0 2.9374695 0.5956497 3.9977417 1.6559143c1.0602722 1.0602684 1.6559143 2.4982986 1.6559143 3.9977417l0 22.613945c0 3.122429 -2.5312195 5.653656 -5.653656 5.653656l-41.480072 0c-3.1224365 0 -5.653656 -2.531227 -5.653656 -5.653656z" fill-rule="evenodd"/><path fill="#000000" d="m264.94998 81.85175l0 -1.640625l6.84375 -8.546875q0.71875 -0.921875 1.375 -1.59375l-7.453125 0l0 -1.578125l9.578125 0l0 1.578125l-7.5 9.265625l-0.8125 0.9375l8.53125 0l0 1.578125l-10.5625 0z" fill-rule="nonzero"/><path fill="#b6d7a8" d="m319.70602 63.624786l0 0c0 -3.122429 2.53125 -5.653656 5.653656 -5.653656l41.480103 0c1.4994507 0 2.9374695 0.5956497 3.9977417 1.6559143c1.0602722 1.0602684 1.6559143 2.4982986 1.6559143 3.9977417l0 22.613945c0 3.122429 -2.5312195 5.653656 -5.653656 5.653656l-41.480103 0c-3.122406 0 -5.653656 -2.531227 -5.653656 -5.653656z" fill-rule="evenodd"/><path stroke="#000000" stroke-width="1.0" stroke-linejoin="round" stroke-linecap="butt" d="m319.70602 63.624786l0 0c0 -3.122429 2.53125 -5.653656 5.653656 -5.653656l41.480103 0c1.4994507 0 2.9374695 0.5956497 3.9977417 1.6559143c1.0602722 1.0602684 1.6559143 2.4982986 1.6559143 3.9977417l0 22.613945c0 3.122429 -2.5312195 5.653656 -5.653656 5.653656l-41.480103 0c-3.122406 0 -5.653656 -2.531227 -5.653656 -5.653656z" fill-rule="evenodd"/><path fill="#000000" d="m345.0811 81.85175l0 -5.65625l-5.15625 -7.703125l2.15625 0l2.640625 4.03125q0.71875 1.125 1.34375 2.265625q0.609375 -1.046875 1.46875 -2.359375l2.578125 -3.9375l2.0625 0l-5.328125 7.703125l0 5.65625l-1.765625 0z" fill-rule="nonzero"/><path fill="#000000" fill-opacity="0.0" d="m88.71391 74.931755l-23.40158 0" fill-rule="evenodd"/><path stroke="#000000" stroke-width="1.0" stroke-linejoin="round" stroke-linecap="butt" d="m88.71391 74.931755l-17.40158 0" fill-rule="evenodd"/><path fill="#000000" stroke="#000000" stroke-width="1.0" stroke-linecap="butt" d="m71.31233 73.28003l-4.5380936 1.6517258l4.5380936 1.6517334z" fill-rule="evenodd"/><path fill="#000000" fill-opacity="0.0" d="m164.89502 74.931755l-23.40158 0" fill-rule="evenodd"/><path stroke="#000000" stroke-width="1.0" stroke-linejoin="round" stroke-linecap="butt" d="m164.89502 74.931755l-17.40158 0" fill-rule="evenodd"/><path fill="#000000" stroke="#000000" stroke-width="1.0" stroke-linecap="butt" d="m147.49344 73.28003l-4.538101 1.6517258l4.538101 1.6517334z" fill-rule="evenodd"/><path fill="#000000" fill-opacity="0.0" d="m243.87927 74.931755l-26.204727 0" fill-rule="evenodd"/><path stroke="#000000" stroke-width="1.0" stroke-linejoin="round" stroke-linecap="butt" d="m243.87927 74.931755l-20.204727 0" fill-rule="evenodd"/><path fill="#000000" stroke="#000000" stroke-width="1.0" stroke-linecap="butt" d="m223.67455 73.28003l-4.538101 1.6517258l4.538101 1.6517334z" fill-rule="evenodd"/><path fill="#000000" fill-opacity="0.0" d="m319.70602 74.931755l-23.055115 0" fill-rule="evenodd"/><path stroke="#000000" stroke-width="1.0" stroke-linejoin="round" stroke-linecap="butt" d="m319.70602 74.931755l-17.055115 0" fill-rule="evenodd"/><path fill="#000000" stroke="#000000" stroke-width="1.0" stroke-linecap="butt" d="m302.6509 73.28003l-4.538086 1.6517258l4.538086 1.6517334z" fill-rule="evenodd"/><path fill="#ffe599" d="m314.03674 3.1023622l59.842438 0l4.283539 4.2835503l0 21.417238l-64.12598 0z" fill-rule="evenodd"/><path stroke="#000000" stroke-width="1.0" stroke-linejoin="round" stroke-linecap="butt" d="m314.03674 3.1023622l59.842438 0l4.283539 4.2835503l0 21.417238l-64.12598 0z" fill-rule="evenodd"/><path fill="#000000" d="m325.53745 21.823643l0 -6.906249l1.046875 0l0 0.96875q0.328125 -0.515625 0.859375 -0.8125q0.546875 -0.3125 1.234375 -0.3125q0.78125 0 1.265625 0.3125q0.484375 0.3125 0.6875 0.890625q0.828125 -1.203125 2.140625 -1.203125q1.03125 0 1.578125 0.578125q0.5625 0.5625 0.5625 1.734374l0 4.75l-1.171875 0l0 -4.359375q0 -0.703125 -0.125 -1.0q-0.109375 -0.3125 -0.40625 -0.49999905q-0.296875 -0.1875 -0.703125 -0.1875q-0.71875 0 -1.203125 0.48437405q-0.484375 0.484375 -0.484375 1.546875l0 4.015625l-1.171875 0l0 -4.484375q0 -0.78125 -0.296875 -1.171875q-0.28125 -0.39062405 -0.921875 -0.39062405q-0.5 0 -0.921875 0.26562405q-0.421875 0.25 -0.609375 0.75q-0.1875 0.5 -0.1875 1.453125l0 3.578125l-1.171875 0zm15.6180725 -0.859375q-0.65625 0.5625 -1.265625 0.796875q-0.59375 0.21875 -1.28125 0.21875q-1.140625 0 -1.75 -0.546875q-0.609375 -0.5625 -0.609375 -1.4375q0 -0.5 0.21875 -0.921875q0.234375 -0.421875 0.609375 -0.671875q0.375 -0.25 0.84375 -0.390625q0.34375 -0.078125 1.046875 -0.171875q1.421875 -0.171875 2.09375 -0.40625q0 -0.234375 0 -0.296875q0 -0.71875 -0.328125 -1.015625q-0.453125 -0.39062405 -1.34375 -0.39062405q-0.8125 0 -1.21875 0.29687405q-0.390625 0.28125 -0.578125 1.015625l-1.140625 -0.15625q0.15625 -0.734375 0.515625 -1.187499q0.359375 -0.453125 1.03125 -0.6875q0.671875 -0.25 1.5625 -0.25q0.890625 0 1.4375 0.203125q0.5625 0.203125 0.8125 0.53125q0.265625 0.3125 0.375 0.79687405q0.046875 0.296875 0.046875 1.078125l0 1.5625q0 1.625 0.078125 2.0625q0.078125 0.4375 0.296875 0.828125l-1.21875 0q-0.1875 -0.359375 -0.234375 -0.859375zm-0.09375 -2.609375q-0.640625 0.265625 -1.921875 0.4375q-0.71875 0.109375 -1.015625 0.25q-0.296875 0.125 -0.46875 0.375q-0.15625 0.25 -0.15625 0.546875q0 0.46875 0.34375 0.78125q0.359375 0.3125 1.046875 0.3125q0.671875 0 1.203125 -0.296875q0.53125 -0.296875 0.78125 -0.8125q0.1875 -0.390625 0.1875 -1.171875l0 -0.421875zm2.5218506 1.40625l1.15625 -0.1875q0.109375 0.703125 0.546875 1.078125q0.453125 0.359375 1.25 0.359375q0.8125 0 1.203125 -0.328125q0.390625 -0.328125 0.390625 -0.765625q0 -0.390625 -0.359375 -0.625q-0.234375 -0.15625 -1.1875 -0.390625q-1.296875 -0.328125 -1.796875 -0.5625q-0.484375 -0.25 -0.75 -0.65625q-0.25 -0.421875 -0.25 -0.9375q0 -0.453125 0.203125 -0.84374905q0.21875 -0.40625 0.578125 -0.671875q0.28125 -0.1875 0.75 -0.328125q0.46875 -0.140625 1.015625 -0.140625q0.8125 0 1.421875 0.234375q0.609375 0.234375 0.90625 0.640625q0.296875 0.39062405 0.40625 1.062499l-1.140625 0.15625q-0.078125 -0.53125 -0.453125 -0.828125q-0.375 -0.31249905 -1.0625 -0.31249905q-0.8125 0 -1.15625 0.265625q-0.34375 0.26562405 -0.34375 0.62499905q0 0.234375 0.140625 0.421875q0.15625 0.1875 0.453125 0.3125q0.171875 0.0625 1.03125 0.296875q1.25 0.328125 1.734375 0.546875q0.5 0.203125 0.78125 0.609375q0.28125 0.40625 0.28125 1.0q0 0.59375 -0.34375 1.109375q-0.34375 0.515625 -1.0 0.796875q-0.640625 0.28125 -1.453125 0.28125q-1.34375 0 -2.046875 -0.5625q-0.703125 -0.5625 -0.90625 -1.65625zm9.6953125 1.015625l0.171875 1.03125q-0.5 0.109375 -0.890625 0.109375q-0.640625 0 -1.0 -0.203125q-0.34375 -0.203125 -0.484375 -0.53125q-0.140625 -0.328125 -0.140625 -1.390625l0 -3.968749l-0.859375 0l0 -0.90625l0.859375 0l0 -1.71875l1.171875 -0.703125l0 2.421875l1.171875 0l0 0.90625l-1.171875 0l0 4.046874q0 0.5 0.046875 0.640625q0.0625 0.140625 0.203125 0.234375q0.140625 0.078125 0.40625 0.078125q0.203125 0 0.515625 -0.046875zm5.8748474 -1.171875l1.203125 0.140625q-0.28125 1.0625 -1.0625 1.65625q-0.765625 0.578125 -1.96875 0.578125q-1.515625 0 -2.40625 -0.9375q-0.890625 -0.9375 -0.890625 -2.609375q0 -1.75 0.890625 -2.703124q0.90625 -0.96875 2.34375 -0.96875q1.390625 0 2.265625 0.9375q0.875 0.93749905 0.875 2.656249q0 0.109375 0 0.3125l-5.15625 0q0.0625 1.140625 0.640625 1.75q0.578125 0.59375 1.4375 0.59375q0.65625 0 1.109375 -0.328125q0.453125 -0.34375 0.71875 -1.078125zm-3.84375 -1.90625l3.859375 0q-0.078125 -0.859375 -0.4375 -1.296875q-0.5625 -0.68749905 -1.453125 -0.68749905q-0.8125 0 -1.359375 0.54687405q-0.546875 0.53125 -0.609375 1.4375zm6.5062256 4.125l0 -6.906249l1.0625 0l0 1.046875q0.40625 -0.734375 0.734375 -0.96875q0.34375 -0.234375 0.765625 -0.234375q0.59375 0 1.203125 0.375l-0.40625 1.078124q-0.4375 -0.24999905 -0.859375 -0.24999905q-0.390625 0 -0.703125 0.23437405q-0.296875 0.234375 -0.421875 0.640625q-0.203125 0.625 -0.203125 1.359375l0 3.625l-1.171875 0z" fill-rule="nonzero"/><path fill="#000000" fill-opacity="0.0" d="m346.3517 29.677166l-0.25198364 28.283463" fill-rule="evenodd"/><path stroke="#000000" stroke-width="1.0" stroke-linejoin="round" stroke-linecap="butt" d="m346.3517 29.677166l-0.19854736 22.283699" fill-rule="evenodd"/><path stroke="#000000" stroke-width="1.0" stroke-linecap="butt" d="m344.50153 51.946156l1.6112366 4.5526314l1.6920776 -4.523205z" fill-rule="evenodd"/><path fill="#ffe599" d="m314.03674 121.509186l59.842438 0l4.283539 4.283554l0 21.417236l-64.12598 0z" fill-rule="evenodd"/><path stroke="#000000" stroke-width="1.0" stroke-linejoin="round" stroke-linecap="butt" d="m314.03674 121.509186l59.842438 0l4.283539 4.283554l0 21.417236l-64.12598 0z" fill-rule="evenodd"/><path fill="#000000" d="m325.77298 138.11047l0 -5.734375l0.75 0l0 5.734375l-0.75 0zm2.0820312 0l0 -5.734375l0.78125 0l3.0 4.5l0 -4.5l0.734375 0l0 5.734375l-0.78125 0l-3.0 -4.5l0 4.5l-0.734375 0zm5.8242188 0l0 -5.734375l3.859375 0l0 0.6875l-3.09375 0l0 1.765625l2.6875 0l0 0.671875l-2.6875 0l0 2.609375l-0.765625 0zm4.8554688 0l0 -5.734375l2.546875 0q0.765625 0 1.15625 0.15625q0.40625 0.15625 0.640625 0.546875q0.234375 0.390625 0.234375 0.859375q0 0.609375 -0.390625 1.03125q-0.390625 0.421875 -1.21875 0.53125q0.296875 0.140625 0.453125 0.28125q0.34375 0.3125 0.640625 0.765625l0.984375 1.5625l-0.953125 0l-0.75 -1.1875q-0.328125 -0.515625 -0.546875 -0.78125q-0.21875 -0.28125 -0.390625 -0.390625q-0.171875 -0.109375 -0.34375 -0.15625q-0.125 -0.03125 -0.421875 -0.03125l-0.875 0l0 2.546875l-0.765625 0zm0.765625 -3.203125l1.625 0q0.515625 0 0.8125 -0.109375q0.296875 -0.109375 0.4375 -0.34375q0.15625 -0.234375 0.15625 -0.515625q0 -0.40625 -0.296875 -0.65625q-0.28125 -0.265625 -0.921875 -0.265625l-1.8125 0l0 1.890625zm4.3710938 3.203125l2.203125 -5.734375l0.8125 0l2.34375 5.734375l-0.859375 0l-0.671875 -1.734375l-2.390625 0l-0.625 1.734375l-0.8125 0zm1.65625 -2.359375l1.9375 0l-0.59375 -1.578125q-0.265625 -0.71875 -0.40625 -1.1875q-0.109375 0.546875 -0.3125 1.09375l-0.625 1.671875zm3.9453125 0.640625l0 -0.703125l2.171875 0l0 0.703125l-2.171875 0zm5.3984375 1.71875l-0.703125 0l0 -4.484375q-0.25 0.25 -0.671875 0.5q-0.40625 0.234375 -0.734375 0.34375l0 -0.671875q0.59375 -0.28125 1.03125 -0.671875q0.4375 -0.390625 0.625 -0.765625l0.453125 0l0 5.75zm5.4960938 -0.671875l0 0.671875l-3.78125 0q-0.015625 -0.25 0.078125 -0.484375q0.140625 -0.390625 0.453125 -0.765625q0.328125 -0.375 0.921875 -0.875q0.9375 -0.765625 1.265625 -1.203125q0.328125 -0.453125 0.328125 -0.84375q0 -0.421875 -0.296875 -0.703125q-0.296875 -0.296875 -0.78125 -0.296875q-0.5 0 -0.8125 0.3125q-0.296875 0.296875 -0.3125 0.84375l-0.71875 -0.078125q0.078125 -0.8125 0.5625 -1.234375q0.484375 -0.421875 1.296875 -0.421875q0.828125 0 1.296875 0.453125q0.484375 0.453125 0.484375 1.140625q0 0.34375 -0.140625 0.671875q-0.140625 0.328125 -0.46875 0.703125q-0.3125 0.359375 -1.078125 1.0q-0.625 0.53125 -0.8125 0.71875q-0.171875 0.1875 -0.296875 0.390625l2.8125 0zm0.76171875 -0.84375l0.703125 -0.09375q0.109375 0.59375 0.40625 0.859375q0.296875 0.265625 0.703125 0.265625q0.5 0 0.84375 -0.34375q0.34375 -0.34375 0.34375 -0.84375q0 -0.484375 -0.328125 -0.796875q-0.3125 -0.328125 -0.796875 -0.328125q-0.203125 0 -0.5 0.078125l0.078125 -0.609375q0.078125 0 0.125 0q0.4375 0 0.796875 -0.234375q0.359375 -0.234375 0.359375 -0.71875q0 -0.390625 -0.265625 -0.640625q-0.25 -0.25 -0.671875 -0.25q-0.40625 0 -0.6875 0.265625q-0.265625 0.25 -0.34375 0.765625l-0.703125 -0.125q0.125 -0.703125 0.578125 -1.09375q0.46875 -0.390625 1.140625 -0.390625q0.46875 0 0.859375 0.203125q0.40625 0.203125 0.609375 0.546875q0.21875 0.34375 0.21875 0.734375q0 0.375 -0.203125 0.6875q-0.203125 0.296875 -0.59375 0.46875q0.515625 0.125 0.796875 0.5q0.28125 0.359375 0.28125 0.921875q0 0.75 -0.546875 1.28125q-0.546875 0.515625 -1.390625 0.515625q-0.75 0 -1.25 -0.453125q-0.5 -0.453125 -0.5625 -1.171875z" fill-rule="nonzero"/><path fill="#000000" fill-opacity="0.0" d="m346.09973 121.509186l0 -29.6063" fill-rule="evenodd"/><path stroke="#000000" stroke-width="1.0" stroke-linejoin="round" stroke-linecap="butt" d="m346.09973 121.509186l0 -23.6063" fill-rule="evenodd"/><path stroke="#000000" stroke-width="1.0" stroke-linecap="butt" d="m347.75146 97.902885l-1.6517334 -4.5380936l-1.6517334 4.5380936z" fill-rule="evenodd"/></g></svg>